<svg width="40" height="40" viewBox="0 0 40 40" fill="none" xmlns="http://www.w3.org/2000/svg">
<path d="M20 0C16.0444 0 12.1776 1.17298 8.8886 3.37061C5.59962 5.56824 3.03617 8.69181 1.52242 12.3463C0.00866568 16.0009 -0.387401 20.0222 0.384303 23.9018C1.15601 27.7814 3.06082 31.3451 5.85787 34.1421C8.65492 36.9392 12.2186 38.844 16.0982 39.6157C19.9778 40.3874 23.9992 39.9913 27.6537 38.4776C31.3082 36.9638 34.4318 34.4004 36.6294 31.1114C38.827 27.8224 40 23.9556 40 20C40 17.3736 39.4827 14.7728 38.4776 12.3463C37.4725 9.91982 35.9993 7.71504 34.1421 5.85786C32.285 4.00069 30.0802 2.5275 27.6537 1.52241C25.2272 0.517315 22.6264 0 20 0ZM25.42 22.58C25.6075 22.7659 25.7563 22.9871 25.8578 23.2308C25.9593 23.4746 26.0116 23.736 26.0116 24C26.0116 24.264 25.9593 24.5254 25.8578 24.7692C25.7563 25.0129 25.6075 25.2341 25.42 25.42C25.2341 25.6075 25.0129 25.7562 24.7692 25.8578C24.5254 25.9593 24.264 26.0116 24 26.0116C23.736 26.0116 23.4746 25.9593 23.2309 25.8578C22.9871 25.7562 22.7659 25.6075 22.58 25.42L20 22.82L17.42 25.42C17.2341 25.6075 17.0129 25.7562 16.7692 25.8578C16.5254 25.9593 16.264 26.0116 16 26.0116C15.736 26.0116 15.4746 25.9593 15.2309 25.8578C14.9871 25.7562 14.7659 25.6075 14.58 25.42C14.3926 25.2341 14.2438 25.0129 14.1422 24.7692C14.0407 24.5254 13.9884 24.264 13.9884 24C13.9884 23.736 14.0407 23.4746 14.1422 23.2308C14.2438 22.9871 14.3926 22.7659 14.58 22.58L17.18 20L14.58 17.42C14.2034 17.0434 13.9918 16.5326 13.9918 16C13.9918 15.4674 14.2034 14.9566 14.58 14.58C14.9566 14.2034 15.4674 13.9918 16 13.9918C16.5326 13.9918 17.0434 14.2034 17.42 14.58L20 17.18L22.58 14.58C22.9566 14.2034 23.4674 13.9918 24 13.9918C24.5326 13.9918 25.0434 14.2034 25.42 14.58C25.7966 14.9566 26.0082 15.4674 26.0082 16C26.0082 16.5326 25.7966 17.0434 25.42 17.42L22.82 20L25.42 22.58Z" fill="white"/>
</svg>
